const svgLogo1 = () => {
<svg id="Layer_1" data-name="Layer 1" xmlns="http://www.w3.org/2000/svg" xmlns:xlink="http://www.w3.org/1999/xlink" viewBox="0 0 360 432"><defs><style>.cls-1{fill:url(#Gold);}.cls-2{fill:url(#Gold-2);}.cls-3{fill:url(#Gold-3);}.cls-4{fill:url(#Gold-4);}.cls-5{fill:url(#Gold-5);}</style><linearGradient id="Gold" x1="-18" y1="18" x2="378" y2="414" gradientUnits="userSpaceOnUse"><stop offset="0.01" stop-color="#fbc926"/><stop offset="0.25" stop-color="#fffbcc"/><stop offset="0.3" stop-color="#f8f0bb"/><stop offset="0.41" stop-color="#e7d28e"/><stop offset="0.55" stop-color="#cca246"/><stop offset="0.6" stop-color="#c3922e"/><stop offset="0.87" stop-color="#eed688"/><stop offset="1" stop-color="#fffbcc"/></linearGradient><linearGradient id="Gold-2" x1="83.78" y1="333.22" x2="268.1" y2="148.9" xlink:href="#Gold"/><linearGradient id="Gold-3" x1="134.25" y1="410.36" x2="340.6" y2="204.01" xlink:href="#Gold"/><linearGradient id="Gold-4" x1="61.94" y1="310.23" x2="246.27" y2="125.91" xlink:href="#Gold"/><linearGradient id="Gold-5" x1="12.98" y1="230.39" x2="164.76" y2="78.61" xlink:href="#Gold"/></defs><rect class="cls-1" width="360" height="432"/><path d="M210.5,95.9c.4,0,.81.31.81.62a.85.85,0,0,1-.81,1c-3.62,0-4.83,2.51-4.83,5.65a23.49,23.49,0,0,0,1.61,7.53l1.21,3.77,62.42,175.13c2.82,6.9,8.46,18.2,16.51,18.2.4,0,.81.32.81.63a.85.85,0,0,1-.81.94h-74.9c-.41,0-.41-.32-.41-.94,0-.31,0-.63.41-.63,6.44,0,8-4.08,8-8.47a23.57,23.57,0,0,0-1.21-7.85l-1.61-4.08a1.22,1.22,0,0,0-.4-.94l.4.63-18.26-49.75H150.75L134,287v-.63a1.3,1.3,0,0,1-.41.94l-1.21,4.08a25.61,25.61,0,0,0-1.61,8.16c0,4.39,2,8.16,8.06,8.16.8,0,.8.32.8.63,0,.62,0,.94-.8.94H64.31c-.4,0-.4-.32-.4-.94,0-.31,0-.63.4-.63,8.06,0,13.7-11,16.52-17.89l63.63-179.52a21.41,21.41,0,0,0,1.2-7.22c0-3.14-.8-5.65-4.43-5.65-.4,0-.4-.32-.4-1,0-.31,0-.62.4-.62ZM164,199.31H185.8l-9.93-42Z"/><path class="cls-2" d="M210.5,95.9c.4,0,.81.31.81.62a.85.85,0,0,1-.81,1c-3.62,0-4.83,2.51-4.83,5.65a23.49,23.49,0,0,0,1.61,7.53l1.21,3.77,62.42,175.13c2.82,6.9,8.46,18.2,16.51,18.2.4,0,.81.32.81.63a.85.85,0,0,1-.81.94h-74.9c-.41,0-.41-.32-.41-.94,0-.31,0-.63.41-.63,6.44,0,8-4.08,8-8.47a23.57,23.57,0,0,0-1.21-7.85l-1.61-4.08a1.27,1.27,0,0,0-.06-.41l.06.1-18.26-49.75H150.75L134,287v-.63h0a1.33,1.33,0,0,1-.41.94l-1.21,4.08a25.61,25.61,0,0,0-1.61,8.16c0,4.39,2,8.16,8.06,8.16.8,0,.8.32.8.63,0,.62,0,.94-.8.94H64.31c-.4,0-.4-.32-.4-.94,0-.31,0-.63.4-.63,8.06,0,13.7-11,16.52-17.89l63.63-179.52a21.41,21.41,0,0,0,1.2-7.22c0-3.14-.8-5.65-4.43-5.65-.4,0-.4-.32-.4-1,0-.31,0-.62.4-.62H210.5M164,199.31H185.8l-9.93-42-11.83,42m53.31,87.1a1.08,1.08,0,0,1,.34.53l-.34-.53M210.5,92.9H141.23a3.36,3.36,0,0,0-3.4,3.62c0,3.76,2.84,4,3.4,4,1,0,1.43,0,1.43,2.65a18.21,18.21,0,0,1-1,6.18L78,288.79c-4.15,10.14-9.14,16-13.71,16a3.37,3.37,0,0,0-3.4,3.63c0,3.75,2.84,3.94,3.4,3.94h74.51a3.63,3.63,0,0,0,3.8-3.94,3.52,3.52,0,0,0-3.8-3.63c-2.5,0-5.06-.61-5.06-5.16a22.38,22.38,0,0,1,1.43-7.13l.06-.18,1-3.23a3,3,0,0,0,.62-1.06l16.07-47.7h44.5l16.95,46.18a3.05,3.05,0,0,0,.47,1.56h0c0,.14.08.28.13.41l1.6,4.05a21,21,0,0,1,1,6.78c0,4.55-1.93,5.47-5,5.47a3.37,3.37,0,0,0-3.41,3.63c0,3.75,2.84,3.94,3.41,3.94h74.9a3.83,3.83,0,0,0,3.81-3.94,3.78,3.78,0,0,0-3.81-3.63c-4.54,0-9.41-5.78-13.71-16.27l-62.38-175-1.19-3.72a.49.49,0,0,1,0-.11,20,20,0,0,1-1.43-6.5c0-2.65.89-2.65,1.83-2.65a3.84,3.84,0,0,0,3.81-4,3.77,3.77,0,0,0-3.81-3.62ZM168,196.31l7.61-27,6.39,27Z"/><path d="M207.22,375.87H299c5.64-.31,29-2.19,29-11.61,0-.31.4-.63,1.21-.63.4,0,.8.32.8.63v49.59H142V384.66L266.83,238.4s-121.63.28-121.63,0V200.11H332.47V229.3Z"/><path class="cls-3" d="M332.47,200.11V229.3L207.22,375.87H299c5.64-.31,29-2.19,29-11.61,0-.31.4-.63,1.21-.63.4,0,.8.32.8.63v49.59H142V384.66L266.83,238.4s-49.45.12-85.29.12c-20.37,0-36.34,0-36.34-.15V200.11H332.47m0-3H145.2a3,3,0,0,0-3,3v38.26c0,1.1.48,3,3.66,3,.48,0,1.2,0,2.13,0,1.82,0,4.45,0,7.73,0,6,0,14.72,0,25.82,0,27.78,0,64.13-.07,78.77-.1L139.7,382.71a3,3,0,0,0-.72,2v29.19a3,3,0,0,0,3,3H330.05a3,3,0,0,0,3-3V364.26a3.77,3.77,0,0,0-3.8-3.63c-2.77,0-4.21,1.83-4.21,3.63,0,4.08-11.21,7.78-26.08,8.61H213.73l121-141.62a3,3,0,0,0,.72-1.95V200.11a3,3,0,0,0-3-3Z"/><path d="M211.66,95.9c.4,0,.8.31.8.62a.85.85,0,0,1-.8,1c-3.63,0-4.84,2.51-4.84,5.65a23.49,23.49,0,0,0,1.61,7.53l1.21,3.77,46.05,129.2c-12.6,13.67-36.78,43.73-36.78,43.73a1.21,1.21,0,0,0-.41-.94l.41.63-18.27-49.75H151.9L135.14,287v-.63a1.32,1.32,0,0,1-.4.94l-1.21,4.08a25.34,25.34,0,0,0-1.61,8.16c0,4.39,2,8.16,8.05,8.16.81,0,.81.32.81.63,0,.62,0,.94-.81.94H65.47c-.4,0-.4-.32-.4-.94,0-.31,0-.63.4-.63,8,0,13.69-11,16.51-17.89l63.63-179.52a21.17,21.17,0,0,0,1.21-7.22c0-3.14-.81-5.65-4.43-5.65-.4,0-.4-.32-.4-1,0-.31,0-.62.4-.62ZM165.19,199.31H187l-9.93-42Z"/><path class="cls-4" d="M211.66,95.9c.4,0,.8.31.8.62a.85.85,0,0,1-.8,1c-3.63,0-4.84,2.51-4.84,5.65a23.49,23.49,0,0,0,1.61,7.53l1.21,3.77,46.05,129.2c-12.6,13.67-36.78,43.73-36.78,43.73a1.25,1.25,0,0,0-.07-.41l.07.1-18.27-49.75H151.9L135.14,287v-.63h0a1.31,1.31,0,0,1-.4.94l-1.21,4.08a25.34,25.34,0,0,0-1.61,8.16c0,4.39,2,8.16,8.05,8.16.81,0,.81.32.81.63,0,.62,0,.94-.81.94H65.47c-.4,0-.4-.32-.4-.94,0-.31,0-.63.4-.63,8,0,13.69-11,16.51-17.89l63.63-179.52a21.17,21.17,0,0,0,1.21-7.22c0-3.14-.81-5.65-4.43-5.65-.4,0-.4-.32-.4-1,0-.31,0-.62.4-.62h69.27M165.19,199.31H187l-9.93-42-11.83,42m53.31,87.1a1.08,1.08,0,0,1,.34.53l-.34-.53M211.66,92.9H142.39a3.36,3.36,0,0,0-3.4,3.62c0,3.76,2.83,4,3.4,4,1,0,1.43,0,1.43,2.65a18.21,18.21,0,0,1-1,6.18L79.18,288.79c-4.16,10.14-9.15,16-13.71,16a3.37,3.37,0,0,0-3.4,3.63c0,3.75,2.83,3.94,3.4,3.94H140a3.63,3.63,0,0,0,3.81-3.94,3.52,3.52,0,0,0-3.81-3.63c-2.5,0-5.05-.61-5.05-5.16a22.35,22.35,0,0,1,1.42-7.13,1.34,1.34,0,0,0,.07-.18l1-3.23A2.88,2.88,0,0,0,138,288l16.08-47.7h44.49l16.95,46.18A3.07,3.07,0,0,0,216,288h0a3,3,0,0,0,1.92,2.14,3.08,3.08,0,0,0,1,.17,3,3,0,0,0,2.34-1.12c.24-.3,24.27-30.13,36.66-43.58a3,3,0,0,0,.62-3l-46-129.16-1.19-3.72s0-.07,0-.11a20.21,20.21,0,0,1-1.43-6.5c0-2.65.89-2.65,1.84-2.65a3.83,3.83,0,0,0,3.8-4,3.76,3.76,0,0,0-3.8-3.62ZM169.15,196.31l7.62-27,6.39,27Z"/><path d="M107.14,25.57c0,.63,0,.94-.81.94-12.89,0-14.9,19.78-15.3,23.23V200.39s93.22-1.39,93.22-1.08l14,39.06H25.38c-.4,0-.4-.32-.4-.94,0-.32,0-.63.4-.63,12.89,0,14.9-18.52,15.31-22.91V49.43c-.41-4.71-2.42-22.92-15.31-22.92-.4,0-.4-.31-.4-.94,0-.31,0-.63.4-.63h81C107.14,24.94,107.14,25.26,107.14,25.57Z"/><path class="cls-5" d="M106.33,24.94c.81,0,.81.32.81.63,0,.63,0,.94-.81.94-12.89,0-14.9,19.78-15.3,23.23V200.39s75.26-1.12,90.53-1.12c1.73,0,2.69,0,2.69,0l14,39.06H25.38c-.4,0-.4-.32-.4-.94,0-.32,0-.63.4-.63,12.89,0,14.9-18.52,15.31-22.91V49.43c-.41-4.71-2.42-22.92-15.31-22.92-.4,0-.4-.31-.4-.94,0-.31,0-.63.4-.63h81m0-3H25.38A3.37,3.37,0,0,0,22,25.57c0,3.75,2.84,3.94,3.4,3.94,9.49,0,11.77,13.91,12.31,20.05V213.75c-.58,6.14-2.94,20.05-12.31,20.05a3.37,3.37,0,0,0-3.4,3.63c0,3.75,2.84,3.94,3.4,3.94H198.25a3,3,0,0,0,2.82-4l-13.91-38.8c-.23-1-1-2.23-3.56-2.27h-2c-13.36,0-73.28.87-87.53,1.08V49.86c.88-7.6,3.64-20.35,12.3-20.35a3.63,3.63,0,0,0,3.81-3.94,3.52,3.52,0,0,0-3.81-3.63Z"/></svg>