<svg id="Layer_1" data-name="Layer 1" xmlns="http://www.w3.org/2000/svg" xmlns:xlink="http://www.w3.org/1999/xlink" viewBox="0 0 595.15 432"><defs><style>.cls-1,.cls-2{fill:#4d4d4d;}.cls-1,.cls-3,.cls-4,.cls-5{fill-rule:evenodd;}.cls-3{fill:url(#Gold);}.cls-4{fill:url(#Gold-2);}.cls-5{fill:url(#Gold-3);}</style><linearGradient id="Gold" x1="472.24" y1="253.45" x2="586.79" y2="253.45" gradientUnits="userSpaceOnUse"><stop offset="0.01" stop-color="#fbc926"/><stop offset="0.25" stop-color="#fffbcc"/><stop offset="0.3" stop-color="#f8f0bb"/><stop offset="0.41" stop-color="#e7d28e"/><stop offset="0.55" stop-color="#cca246"/><stop offset="0.6" stop-color="#c3922e"/><stop offset="0.87" stop-color="#eed688"/><stop offset="1" stop-color="#fffbcc"/></linearGradient><linearGradient id="Gold-2" x1="8.36" y1="253.45" x2="122.91" y2="253.45" xlink:href="#Gold"/><linearGradient id="Gold-3" x1="159.35" y1="78.9" x2="434.98" y2="354.52" xlink:href="#Gold"/></defs><path d="M136.88,80.86c0,.72,0,1.09-.59,1.09-9.29,0-10.75,23-11,27V283.76h64.23c4.35-.37,21.79-2.19,21.79-13.48a.77.77,0,0,1,.87-.73.72.72,0,0,1,.58.73v57.55H77.88c-.29,0-.29-.36-.29-1.09,0-.36,0-.73.29-.73,9.3,0,10.76-21.49,11.05-26.59V108.54C88.64,103.08,87.18,82,77.88,82c-.29,0-.29-.37-.29-1.09,0-.37,0-.73.29-.73h58.41C136.88,80.13,136.88,80.49,136.88,80.86Z"/><path d="M379.82,326c-5.82,0-9.88-13.11-11.92-21.13l-45-203.26L322,97.25a41.07,41.07,0,0,1-1.17-8.74c0-3.65.88-6.56,3.49-6.56.29,0,.58-.37.58-1.09a.72.72,0,0,0-.58-.73h-50c-.29,0-.29.36-.29.73,0,.72,0,1.09.29,1.09,2.61,0,3.19,2.91,3.19,6.56a38.53,38.53,0,0,1-.87,8.37L230.74,305.25c-2,8-6.11,20.76-11.92,20.76-.29,0-.29.37-.29.73,0,.73,0,1.09.29,1.09h53.76c.58,0,.58-.36.58-1.09,0-.36,0-.73-.58-.73-4.36,0-5.81-4.37-5.81-9.47,0-3.28,9-45.17,9-45.17L299.32,155,313,227.29,329.54,302l0-.11a3.06,3.06,0,0,1,0,.47l1.16,4.74a42.47,42.47,0,0,1,.88,9.11c0,5.1-1.17,9.83-5.82,9.83-.29,0-.29.37-.29.73,0,.73,0,1.09.29,1.09h54.06c.29,0,.58-.36.58-1.09C380.4,326.38,380.11,326,379.82,326Z"/><path d="M433,284.12h66.26c4.07-.36,20.92-2.55,20.92-13.48a.78.78,0,0,1,.87-.73.72.72,0,0,1,.59.73V328.2H385.92V294.32L476,124.57H407.71c-6.39,1.09-18.31,3.64-18.31,13.11,0,.37-.29.37-.58.37s-.58,0-.58-.37V80.13H523.37V114Z"/><path class="cls-1" d="M469.08,268.5a1.51,1.51,0,0,1-1.49-1.64l1.62-18.4a1.51,1.51,0,0,1,1.49-1.37h.18c18.78,2.2,37.72,5.39,56.29,9.48a1.51,1.51,0,0,1,1.17,1.56,1.48,1.48,0,0,1-1.35,1.4,535.22,535.22,0,0,0-57.6,8.92A1.06,1.06,0,0,1,469.08,268.5Z"/><path class="cls-2" d="M470.7,248.59a564.53,564.53,0,0,1,56.14,9.46A532.36,532.36,0,0,0,469.08,267l1.62-18.41m0-3a3,3,0,0,0-3,2.74q-.79,9.19-1.62,18.4a3,3,0,0,0,3,3.27,3.18,3.18,0,0,0,.62-.07A529.77,529.77,0,0,1,527.14,261a3,3,0,0,0,.35-5.92,566.64,566.64,0,0,0-56.44-9.5,2.07,2.07,0,0,0-.35,0Z"/><path class="cls-3" d="M571.1,291.42a1.43,1.43,0,0,1-.46-.07,553.52,553.52,0,0,0-97.09-21.27,1.5,1.5,0,0,1-.1-3,534.84,534.84,0,0,1,54.3-7.63L535,216.73a1.51,1.51,0,0,1,.64-1,1.56,1.56,0,0,1,.84-.25,1.24,1.24,0,0,1,.33,0c16.36,3.69,32.81,8.13,48.91,13.2a1.5,1.5,0,0,1,.58,2.52C578.13,239,570,247,562.18,255.14c3.68,11.38,7.17,22.94,10.36,34.37a1.5,1.5,0,0,1-1.44,1.91Z"/><path d="M536.5,217q24.54,5.53,48.79,13.17-12.75,12-24.81,24.6,5.7,17.55,10.62,35.17a553.21,553.21,0,0,0-97.36-21.33,532,532,0,0,1,55.3-7.71q3.74-21.94,7.46-43.9m0-3a3,3,0,0,0-1.67.51,3,3,0,0,0-1.29,2l-3.11,18.29-4,23.33a534.82,534.82,0,0,0-53.3,7.55,3,3,0,0,0,.19,5.92,551.46,551.46,0,0,1,96.83,21.21,3.14,3.14,0,0,0,.91.14,3,3,0,0,0,2.88-3.81c-3.11-11.15-6.5-22.44-10.09-33.58,7.63-7.9,15.51-15.69,23.46-23.2a3,3,0,0,0-1.16-5c-16.14-5.09-32.63-9.54-49-13.24a3,3,0,0,0-.66-.07Z"/><path class="cls-1" d="M126.07,268.5a1.06,1.06,0,0,1-.31,0,535.22,535.22,0,0,0-57.6-8.92,1.5,1.5,0,0,1-.18-3c18.57-4.09,37.51-7.28,56.29-9.48h.18a1.51,1.51,0,0,1,1.49,1.37l1.62,18.4a1.5,1.5,0,0,1-.5,1.26A1.53,1.53,0,0,1,126.07,268.5Z"/><path class="cls-2" d="M124.45,248.59,126.07,267a532.36,532.36,0,0,0-57.76-8.95,564.53,564.53,0,0,1,56.14-9.46m0-3a2,2,0,0,0-.35,0,566.64,566.64,0,0,0-56.44,9.5A3,3,0,0,0,68,261a529.77,529.77,0,0,1,57.44,8.89,3.18,3.18,0,0,0,.62.07,3,3,0,0,0,2-.76,3,3,0,0,0,1-2.51l-1.62-18.4a3,3,0,0,0-1.09-2.06,3,3,0,0,0-1.89-.68Z"/><path class="cls-4" d="M24.05,291.42a1.51,1.51,0,0,1-1-.42,1.53,1.53,0,0,1-.4-1.49c3.18-11.4,6.67-23,10.36-34.37C25.12,247,17,239,8.83,231.24a1.48,1.48,0,0,1-.43-1.42,1.5,1.5,0,0,1,1-1.1c16.1-5.07,32.55-9.52,48.91-13.2a1.24,1.24,0,0,1,.33,0,1.53,1.53,0,0,1,.83.25,1.49,1.49,0,0,1,.65,1l7.26,42.76a535,535,0,0,1,54.31,7.63,1.5,1.5,0,0,1-.1,3,553.63,553.63,0,0,0-97.1,21.27A1.33,1.33,0,0,1,24.05,291.42Z"/><path d="M58.65,217q3.74,21.95,7.46,43.9a532,532,0,0,1,55.3,7.71,553.21,553.21,0,0,0-97.36,21.33Q29,272.3,34.67,254.75,22.61,242.2,9.86,230.15,34.09,222.52,58.65,217m0-3a3,3,0,0,0-.66.07c-16.4,3.7-32.89,8.15-49,13.24a3,3,0,0,0-1.16,5c8,7.51,15.83,15.3,23.46,23.2-3.59,11.14-7,22.43-10.1,33.58a3,3,0,0,0,2.89,3.81,3.14,3.14,0,0,0,.91-.14,551.46,551.46,0,0,1,96.83-21.21,3,3,0,0,0,.19-5.92,534.82,534.82,0,0,0-53.3-7.55L64.75,235l-3.14-18.47a3,3,0,0,0-1.29-2,3,3,0,0,0-1.67-.51Z"/><path class="cls-5" d="M63.82,258.37a1.51,1.51,0,0,1-1.43-1c-4-12.52-19.43-60.9-19.43-60.9a1.54,1.54,0,0,1,.17-1.27,1.51,1.51,0,0,1,1.1-.67,2306.69,2306.69,0,0,1,505.88,0,1.49,1.49,0,0,1,1.09.67,1.5,1.5,0,0,1,.17,1.27l-19.43,60.9a1.5,1.5,0,0,1-1.43,1h-.16a2127,2127,0,0,0-466.36,0Z"/><path d="M297.17,182.08A2294.68,2294.68,0,0,1,549.94,196q-9.71,30.44-19.43,60.89a2128.39,2128.39,0,0,0-466.69,0Q54.1,226.42,44.39,196a2294.86,2294.86,0,0,1,252.78-13.9m0-3A2303.22,2303.22,0,0,0,44.06,193a3,3,0,0,0-2.53,3.89l7.58,23.74Q55,239.2,61,257.78a3,3,0,0,0,2.85,2.09l.33,0a2125.69,2125.69,0,0,1,466,0l.33,0a3,3,0,0,0,2.86-2.09l10.34-32.42,9.09-28.47a3,3,0,0,0-2.53-3.89,2303,2303,0,0,0-253.1-13.92Z"/><path d="M140.23,194c.09,0,.19.06.19.13a.19.19,0,0,1-.16.23c-.82,0-1,.65-1,1.37a5.42,5.42,0,0,0,.47,1.71l.33.85q8.3,19.69,16.34,39.44c.72,1.55,2.11,4.08,3.88,4,.09,0,.18.06.18.14s-.07.22-.16.22q-8.24.48-16.47,1c-.08,0-.09-.07-.1-.21s0-.15.08-.15c1.42-.09,1.71-1.05,1.65-2.06a5.62,5.62,0,0,0-.38-1.79l-.42-.92a.3.3,0,0,0-.1-.21l.1.14L142.23,232q-7.2.47-14.41,1c-.54,2.07-1.07,4.14-1.61,6.21V239a.34.34,0,0,1-.07.23c-.07.32-.13.64-.2,1a6.28,6.28,0,0,0-.22,1.9,1.66,1.66,0,0,0,1.91,1.75c.17,0,.18.06.19.13s0,.21-.17.23q-8.17.58-16.36,1.22c-.09,0-.09-.06-.1-.2s0-.15.07-.16c1.77-.13,2.81-2.76,3.31-4.39q5.41-21.18,11.08-42.32a4.67,4.67,0,0,0,.15-1.68c-.05-.72-.27-1.29-1.08-1.23-.09,0-.1-.06-.11-.21s0-.14.08-.15Q132.47,194.54,140.23,194Zm-10.08,30c2.83-.2,5.65-.39,8.48-.57q-2.5-6-5-12.07Q131.86,217.69,130.15,224Z"/><path d="M225.38,190.27a.21.21,0,0,1-.18.23c-2.8.07-3.22,4.29-3.28,5.37q.47,15.88.92,31.76c.09,6.51-9.06,12.05-20.39,12.48s-21-4.39-21.37-10.89q-.75-15.87-1.51-31.73c-.14-1.08-.88-5.25-3.68-5.11-.09,0-.19-.06-.2-.21a.18.18,0,0,1,.18-.15q9.09-.45,18.19-.82c.09,0,.18.07.18.14a.19.19,0,0,1-.17.22c-2.9.12-3.17,4.34-3.21,5.42q.62,14.43,1.22,28.85c.22,3,3.37,5.86,10.22,5.6s9.22-3.59,9.3-6.49q-.48-14.35-1-28.71c-.13-1.08-.72-5.26-3.62-5.16-.09,0-.09-.07-.1-.22s0-.14.09-.14q9.09-.33,18.19-.58C225.28,190.13,225.38,190.2,225.38,190.27Z"/><path d="M247.28,204.11c-.16-8,11.76-14.71,26.72-14.8a61.07,61.07,0,0,1,12.77,1.47,6.14,6.14,0,0,0,1.09.07c.81,0,1.35-.14,1.35-.65,0-.07.09-.14.27-.14s.19.07.19.14q0,6.51,0,13a27.61,27.61,0,0,0-15.6-5.16c-7.68.05-13.87,2.67-13.83,5.85.1,6.6,30.17,5.91,30.14,20,0,8-11.91,14.44-26.51,14.61a62.25,62.25,0,0,1-12.53-1.35,4.71,4.71,0,0,0-1.06-.05c-.71,0-1.33.16-1.32.67,0,.07-.09.07-.18.08s-.26,0-.26-.07q-.12-6.37-.23-12.73a28.62,28.62,0,0,0,15.48,4.69c7.56-.08,13.68-2.71,13.67-5.82C277.4,215.79,247.57,219,247.28,204.11Z"/><path d="M355.34,201.73c-.18,0-.27,0-.27-.08.07-2.25-5.33-2.76-6.68-2.86l-8.93-.22q-.39,17.4-.77,34.8c.07,1,.51,5.29,3.25,5.36.09,0,.18.07.18.14s-.1.22-.18.22q-8.91-.21-17.82-.35c-.09,0-.08-.08-.08-.22s0-.14.09-.14c2.84,0,3.35-4.22,3.46-5.23q.3-17.4.59-34.8l-8.93-.13c-1.26.05-6.77.35-6.79,2.59,0,.08-.09.08-.18.07s-.27,0-.27-.07q.06-5.72.11-11.43,21.87.21,43.74.85-.17,5.72-.34,11.43C355.52,201.73,355.43,201.73,355.34,201.73Z"/><path d="M396,191.89c0,.15-.11.22-.2.21-2.89-.13-3.53,4-3.67,5.12q-.85,18.94-1.7,37.88c0,1,.3,5.3,3.13,5.43a.17.17,0,0,1,.17.15c0,.15-.1.21-.19.21q-8.9-.42-17.8-.76c-.09,0-.08-.07-.08-.22s0-.14.09-.14c2.75.11,3.45-4.13,3.58-5.14q.76-18.94,1.52-37.89c-.05-1.09-.43-5.3-3.23-5.41-.09,0-.09-.08-.08-.22s0-.15.09-.14q9.1.34,18.19.77A.18.18,0,0,1,396,191.89Z"/><path d="M436.92,194.15a.2.2,0,0,1-.2.21c-1.72-.11-2.21.51-2.25,1.23a3.58,3.58,0,0,0,.68,2.15q9.12,14,18,28.13.9-12.57,1.81-25.12c0-1.16-.26-5.17-3.06-5.37-.09,0-.09-.08-.08-.22s0-.15.1-.14q9.09.64,18.17,1.36a.17.17,0,0,1,.17.15c0,.15-.11.21-.2.21-2.8-.22-3.67,3.92-3.84,5q-1.46,18.9-2.92,37.8c0,1,.22,5.31,3,5.53a.16.16,0,0,1,.16.16.19.19,0,0,1-.19.2q-8.88-.7-17.78-1.33c-.09,0-.08-.08-.07-.22s0-.15.1-.14c1.68.12,2.17-.5,2.22-1.22a5,5,0,0,0-.56-2.07q-9.24-14.67-18.74-29.25l-1.62,26c0,1,.29,5.31,3,5.49.09,0,.18.08.17.15s-.1.21-.19.21q-8.9-.57-17.79-1.07c-.09,0-.08-.07-.08-.22s0-.14.1-.14c2.83.16,3.52-4.07,3.67-5.08q1.08-18.93,2.17-37.85c0-1.09-.24-5.31-3.14-5.47-.09,0-.08-.08-.07-.22s0-.15.09-.14q9.5.52,19,1.14A.18.18,0,0,1,436.92,194.15Z"/><path d="M212.14,269.63a.77.77,0,0,0-.87.73c0,11.29-17.44,13.11-21.79,13.48H125.25V252.66c-.9.05-35,2.91-36.32,2.79V299.5c-.29,5.1-1.75,26.59-11.05,26.59-.29,0-.29.37-.29.73,0,.73,0,1.09.29,1.09H212.72V270.36A.72.72,0,0,0,212.14,269.63Z"/><path d="M379.82,326.09c-5.82,0-9.88-13.11-11.92-21.13l-8.48-35c-10.16,1-29.57,1.85-36.56,1.38l6.68,30.68,0-.11a3.06,3.06,0,0,1,0,.47l1.16,4.74a42.47,42.47,0,0,1,.88,9.11c0,5.1-1.17,9.83-5.82,9.83-.29,0-.29.37-.29.73,0,.73,0,1.09.29,1.09h54.06c.29,0,.58-.36.58-1.09C380.4,326.46,380.11,326.09,379.82,326.09Z"/><path d="M272.58,326.09c-4.36,0-5.81-4.37-5.81-9.47a45.67,45.67,0,0,1,1.16-9.47l.87-4.74a2.07,2.07,0,0,0,.3-1.09v.73l6.68-30.68c-.33,0-26.38-1.38-37-2.69l-8.07,36.65c-2,8-6.11,20.76-11.92,20.76-.29,0-.29.37-.29.73,0,.73,0,1.09.29,1.09h53.76c.58,0,.58-.36.58-1.09C273.16,326.46,273.16,326.09,272.58,326.09Z"/><path d="M521,270a.78.78,0,0,0-.87.73c0,10.93-16.85,13.12-20.92,13.48H433l5.59-11c-3.23-.43-37.37-2.51-40.4-3.17L385.91,294.4v33.88H521.63V270.72A.72.72,0,0,0,521,270Z"/></svg>